<?xml version="1.0" standalone="no"?>
<!DOCTYPE svg PUBLIC "-//W3C//DTD SVG 20010904//EN"
 "http://www.w3.org/TR/2001/REC-SVG-20010904/DTD/svg10.dtd">
<svg version="1.0" xmlns="http://www.w3.org/2000/svg"
 width="70.000000pt" height="70.000000pt" viewBox="0 0 70.000000 70.000000"
 preserveAspectRatio="xMidYMid meet">
<metadata>
Created by potrace 1.14, written by Peter Selinger 2001-2017
</metadata>
<g transform="translate(0.000000,70.000000) scale(0.100000,-0.100000)"
fill="#000000" stroke="none">
<path d="M240 413 c-52 -91 -110 -192 -128 -223 l-33 -58 86 2 c46 1 89 6 94
11 4 6 25 42 47 80 73 134 79 145 84 145 7 0 100 -158 100 -169 0 -4 -29 -8
-65 -9 -36 0 -72 -1 -80 -1 -17 -1 -37 -43 -24 -51 9 -6 260 -3 266 3 4 4
-182 326 -198 342 -6 5 -9 5 -9 -2 0 -11 -145 -271 -160 -286 -4 -5 -15 -7
-24 -5 -12 2 5 39 78 168 91 159 94 165 80 192 -8 15 -16 28 -17 28 -1 0 -45
-75 -97 -167z"/>
</g>
</svg>
